<?xml version="1.0" encoding="UTF-8" standalone="no"?>
<!-- Created with Inkscape (http://www.inkscape.org/) -->
<svg
   xmlns:dc="http://purl.org/dc/elements/1.1/"
   xmlns:cc="http://web.resource.org/cc/"
   xmlns:rdf="http://www.w3.org/1999/02/22-rdf-syntax-ns#"
   xmlns:svg="http://www.w3.org/2000/svg"
   xmlns="http://www.w3.org/2000/svg"
   xmlns:sodipodi="http://inkscape.sourceforge.net/DTD/sodipodi-0.dtd"
   xmlns:inkscape="http://www.inkscape.org/namespaces/inkscape"
   width="950"
   height="800"
   id="svg2"
   sodipodi:version="0.32"
   inkscape:version="0.43"
   version="1.0"
   sodipodi:docbase="C:\temp"
   sodipodi:docname="determinante.svg">
  <defs
     id="defs4" />
  <sodipodi:namedview
     id="base"
     pagecolor="#ffffff"
     bordercolor="#666666"
     borderopacity="1.0"
     inkscape:pageopacity="0.0"
     inkscape:pageshadow="2"
     inkscape:zoom="0.86526316"
     inkscape:cx="475"
     inkscape:cy="400"
     inkscape:document-units="px"
     inkscape:current-layer="layer1"
     gridspacingx="5px"
     gridspacingy="5px"
     gridtolerance="10px"
     showgrid="true"
     inkscape:grid-points="true"
     inkscape:window-width="913"
     inkscape:window-height="931"
     inkscape:window-x="13"
     inkscape:window-y="4"
     showguides="true"
     inkscape:guide-bbox="true"
     inkscape:grid-bbox="false" />
  <metadata
     id="metadata7">
    <rdf:RDF>
      <cc:Work
         rdf:about="">
        <dc:format>image/svg+xml</dc:format>
        <dc:type
           rdf:resource="http://purl.org/dc/dcmitype/StillImage" />
        <dc:title>Determinant parallelogram</dc:title>
        <dc:creator>
          <cc:Agent>
            <dc:title>Claudio Rocchini</dc:title>
          </cc:Agent>
        </dc:creator>
      </cc:Work>
    </rdf:RDF>
  </metadata>
  <g
     inkscape:label="Layer 1"
     inkscape:groupmode="layer"
     id="layer1">
    <path
       sodipodi:type="arc"
       style="opacity:1;color:#000000;fill:#000000;fill-opacity:1;fill-rule:evenodd;stroke:none;stroke-width:4;stroke-linecap:round;stroke-linejoin:round;marker:none;marker-start:none;marker-mid:none;marker-end:none;stroke-miterlimit:4;stroke-dasharray:8, 4;stroke-dashoffset:0;stroke-opacity:1;visibility:visible;display:inline;overflow:visible"
       id="path2348"
       sodipodi:cx="50"
       sodipodi:cy="630"
       sodipodi:rx="5"
       sodipodi:ry="5"
       d="M 55 630 A 5 5 0 1 1  45,630 A 5 5 0 1 1  55 630 z"
       transform="matrix(2,0,0,2,300,-755)" />
    <path
       style="fill:none;fill-opacity:0.75;fill-rule:evenodd;stroke:#000000;stroke-width:4;stroke-linecap:butt;stroke-linejoin:miter;stroke-miterlimit:4;stroke-dasharray:none;stroke-opacity:1"
       d="M 750,529.5 L 400,504.5"
       id="path1375"
       sodipodi:nodetypes="cc" />
    <path
       style="fill:none;fill-opacity:0.75;fill-rule:evenodd;stroke:#000000;stroke-width:4;stroke-linecap:butt;stroke-linejoin:miter;stroke-miterlimit:4;stroke-dasharray:none;stroke-opacity:1"
       d="M 400,504.5 L 50,629.5"
       id="path1363"
       sodipodi:nodetypes="cc" />
    <path
       style="fill:none;fill-opacity:0.75;fill-rule:evenodd;stroke:#000000;stroke-width:4;stroke-linecap:butt;stroke-linejoin:miter;stroke-miterlimit:4;stroke-dasharray:none;stroke-opacity:1"
       d="M 550,125 L 400,504.5"
       id="path1385"
       sodipodi:nodetypes="cc" />
    <path
       style="fill:none;fill-opacity:0.75;fill-rule:evenodd;stroke:#000000;stroke-width:4;stroke-linecap:butt;stroke-linejoin:miter;stroke-miterlimit:4;stroke-dasharray:8, 4;stroke-dashoffset:0;stroke-opacity:1"
       d="M 50,629.5 L 900,204.5"
       id="path1329"
       sodipodi:nodetypes="cc" />
    <path
       style="fill:#a4a4a4;fill-opacity:1;fill-rule:evenodd;stroke:none;stroke-width:1px;stroke-linecap:butt;stroke-linejoin:miter;stroke-opacity:1"
       d="M 50,629.5 L 400,554.5 L 550,530 L 900,650 L 550,725 L 400,754.5 L 50,629.5 z "
       id="path2274"
       sodipodi:nodetypes="ccccccc" />
    <path
       style="font-size:48px;font-style:italic;font-variant:normal;font-weight:normal;font-stretch:normal;text-align:start;line-height:100%;writing-mode:lr-tb;text-anchor:start;fill:#000000;fill-opacity:1;stroke:none;stroke-width:1px;stroke-linecap:butt;stroke-linejoin:miter;stroke-opacity:1;font-family:Arial"
       d="M 376.24762,548.08014 L 381.45074,523.18951 L 385.20074,523.18951 L 384.14606,528.27545 C 385.4273,526.3536 386.6773,524.93172 387.89606,524.00983 C 389.13042,523.08798 390.38823,522.62704 391.66949,522.62701 C 392.51323,522.62704 393.55229,522.93173 394.78668,523.54108 L 393.05231,527.47858 C 392.31791,526.94735 391.51323,526.68172 390.63824,526.6817 C 389.15386,526.68172 387.63042,527.50985 386.06793,529.16608 C 384.50542,530.82234 383.27886,533.7989 382.38824,538.09576 L 380.27887,548.08014 L 376.24762,548.08014 M 392.65387,541.33014 L 395.74762,540.94342 C 395.98199,542.74811 396.49761,544.04303 397.29449,544.82819 C 398.10308,545.60163 399.15777,545.98834 400.45856,545.98834 C 402.02886,545.98834 403.38237,545.42584 404.5191,544.30084 C 405.66753,543.17585 406.24174,541.88679 406.24176,540.43365 C 406.24174,539.16804 405.81401,538.12507 404.95856,537.30475 C 404.10307,536.47273 402.95464,536.05671 401.51324,536.0567 C 401.34917,536.05671 401.00933,536.08015 400.49371,536.12701 L 401.03864,533.47272 C 401.34331,533.51961 401.63628,533.54304 401.91754,533.54303 C 403.73393,533.54304 405.12846,533.10359 406.10114,532.22467 C 407.08549,531.33406 407.57768,530.24422 407.5777,528.95514 C 407.57768,527.77157 407.17338,526.77547 406.36481,525.96686 C 405.56792,525.15829 404.5894,524.75399 403.42926,524.75397 C 402.29253,524.75399 401.26714,525.17001 400.35309,526.00201 C 399.45074,526.82235 398.87066,527.98836 398.61285,529.50006 L 395.48395,528.86725 C 395.99957,526.74618 396.9898,525.10555 398.45465,523.94537 C 399.91949,522.78524 401.65386,522.20517 403.65778,522.20514 C 405.76714,522.20517 407.47221,522.84384 408.77301,524.12115 C 410.08549,525.39852 410.74174,526.96883 410.74176,528.83209 C 410.74174,530.19149 410.38432,531.38094 409.66949,532.40045 C 408.96635,533.40828 407.90581,534.24617 406.48785,534.91412 C 407.49565,535.51179 408.24565,536.23249 408.73785,537.07623 C 409.24174,537.91999 409.49369,538.88679 409.49371,539.97662 C 409.49369,542.28522 408.62651,544.28913 406.89215,545.98834 C 405.16948,547.67584 403.10698,548.51959 400.70465,548.51959 C 398.37261,548.51959 396.4859,547.8692 395.04449,546.56842 C 393.6148,545.25592 392.81793,543.50983 392.65387,541.33014"
       id="text2294" />
    <path
       style="fill:#246bd9;fill-opacity:0.50196078;fill-rule:evenodd;stroke:none;stroke-width:1px;stroke-linecap:butt;stroke-linejoin:miter;stroke-opacity:1"
       d="M 50.00003,629.5 L 400.00003,654.5 L 750.00003,529.5 L 900,154.5 L 550.00003,125 L 200.00003,254.5 L 50.00003,629.5 z "
       id="path2262"
       sodipodi:nodetypes="ccccccc" />
    <path
       style="fill:none;fill-opacity:0.75;fill-rule:evenodd;stroke:#000000;stroke-width:4;stroke-linecap:butt;stroke-linejoin:miter;stroke-miterlimit:4;stroke-dasharray:8, 4;stroke-dashoffset:0;stroke-opacity:1"
       d="M 50,629.5 L 350,775"
       id="path1331"
       sodipodi:nodetypes="cc" />
    <path
       style="fill:none;fill-opacity:0.75;fill-rule:evenodd;stroke:#000000;stroke-width:4;stroke-linecap:butt;stroke-linejoin:miter;stroke-miterlimit:4;stroke-dasharray:none;stroke-opacity:1"
       d="M 400,654.5 L 50,629.5"
       id="path1365"
       sodipodi:nodetypes="cc" />
    <path
       style="fill:none;fill-opacity:0.75;fill-rule:evenodd;stroke:#000000;stroke-width:4;stroke-linecap:butt;stroke-linejoin:miter;stroke-miterlimit:4;stroke-dasharray:none;stroke-opacity:1"
       d="M 200,254.5 L 50,629.5"
       id="path1367"
       sodipodi:nodetypes="cc" />
    <path
       style="fill:none;fill-opacity:0.75;fill-rule:evenodd;stroke:#000000;stroke-width:4;stroke-linecap:butt;stroke-linejoin:miter;stroke-miterlimit:4;stroke-dasharray:none;stroke-opacity:1"
       d="M 750,529.5 L 400,654.5"
       id="path1369"
       sodipodi:nodetypes="cc" />
    <path
       style="fill:none;fill-opacity:0.75;fill-rule:evenodd;stroke:#000000;stroke-width:4;stroke-linecap:butt;stroke-linejoin:miter;stroke-miterlimit:4;stroke-dasharray:none;stroke-opacity:1"
       d="M 550,125 L 200,254.5"
       id="path1371"
       sodipodi:nodetypes="cc" />
    <path
       style="fill:none;fill-opacity:0.75;fill-rule:evenodd;stroke:#000000;stroke-width:4;stroke-linecap:butt;stroke-linejoin:miter;stroke-miterlimit:4;stroke-dasharray:none;stroke-opacity:1"
       d="M 550,279.5 L 200,254.5"
       id="path1373"
       sodipodi:nodetypes="cc" />
    <path
       style="fill:none;fill-opacity:0.75;fill-rule:evenodd;stroke:#000000;stroke-width:4;stroke-linecap:butt;stroke-linejoin:miter;stroke-miterlimit:4;stroke-dasharray:none;stroke-opacity:1"
       d="M 900,154.5 L 550,125"
       id="path1377"
       sodipodi:nodetypes="cc" />
    <path
       style="fill:none;fill-opacity:0.75;fill-rule:evenodd;stroke:#000000;stroke-width:4;stroke-linecap:butt;stroke-linejoin:miter;stroke-miterlimit:4;stroke-dasharray:none;stroke-opacity:1"
       d="M 900,154.5 L 550,279.5"
       id="path1379"
       sodipodi:nodetypes="cc" />
    <path
       style="fill:none;fill-opacity:0.75;fill-rule:evenodd;stroke:#000000;stroke-width:4;stroke-linecap:butt;stroke-linejoin:miter;stroke-miterlimit:4;stroke-dasharray:none;stroke-opacity:1"
       d="M 550,279.5 L 400,654.5"
       id="path1381"
       sodipodi:nodetypes="cc" />
    <path
       style="fill:none;fill-opacity:0.75;fill-rule:evenodd;stroke:#000000;stroke-width:4;stroke-linecap:butt;stroke-linejoin:miter;stroke-miterlimit:4;stroke-dasharray:none;stroke-opacity:1"
       d="M 900,154.5 L 750,529.5"
       id="path1383"
       sodipodi:nodetypes="cc" />
    <path
       style="fill:none;fill-opacity:0.75;fill-rule:evenodd;stroke:#000000;stroke-width:4;stroke-linecap:butt;stroke-linejoin:miter;stroke-miterlimit:4;stroke-dasharray:8, 4;stroke-dashoffset:0;stroke-opacity:1"
       d="M 50,629.5 L 50,25"
       id="path1387"
       sodipodi:nodetypes="cc" />
    <path
       style="font-size:48px;font-style:italic;font-variant:normal;font-weight:normal;font-stretch:normal;text-align:start;line-height:125%;writing-mode:lr-tb;text-anchor:start;fill:#000000;fill-opacity:1;stroke:none;stroke-width:1px;stroke-linecap:butt;stroke-linejoin:miter;stroke-opacity:1;font-family:Arial"
       d="M 47.698833,668.62988 C 47.69883,665.72365 48.128517,662.77052 48.987896,659.77051 C 49.86289,656.77053 50.831639,654.3721 51.894146,652.5752 C 52.956637,650.77835 54.058199,649.3721 55.198833,648.35645 C 56.339446,647.34085 57.456633,646.59867 58.550396,646.12988 C 59.659756,645.64554 60.886317,645.40335 62.230083,645.40332 C 64.855063,645.40335 67.042561,646.37992 68.792583,648.33301 C 70.558182,650.28616 71.440994,653.10647 71.441021,656.79395 C 71.440994,660.59084 70.831619,664.34865 69.612896,668.06738 C 68.175372,672.47364 66.175374,675.77832 63.612896,677.98145 C 61.644129,679.65332 59.401943,680.48926 56.886333,680.48926 C 54.308198,680.48926 52.128513,679.48145 50.347271,677.46582 C 48.581642,675.43457 47.69883,672.48927 47.698833,668.62988 M 51.800396,669.70801 C 51.800388,671.81739 52.151951,673.46583 52.855083,674.65332 C 53.808199,676.29395 55.22226,677.11426 57.097271,677.11426 C 58.737882,677.11426 60.230068,676.37207 61.573833,674.8877 C 63.511314,672.79395 64.964438,669.73146 65.933208,665.7002 C 66.917561,661.65334 67.409748,658.34865 67.409771,655.78613 C 67.409748,653.31741 66.933186,651.53616 65.980083,650.44238 C 65.042563,649.34866 63.800376,648.80179 62.253521,648.80176 C 61.128504,648.80179 60.073818,649.09085 59.089458,649.66895 C 58.120695,650.2471 57.191008,651.23929 56.300396,652.64551 C 55.03476,654.62991 53.933199,657.59866 52.995708,661.55176 C 52.198826,664.92677 51.800388,667.64552 51.800396,669.70801"
       id="text2278" />
    <path
       style="font-size:48px;font-style:italic;font-variant:normal;font-weight:normal;font-stretch:normal;text-align:start;line-height:100%;writing-mode:lr-tb;text-anchor:start;fill:#000000;fill-opacity:1;stroke:none;stroke-width:1px;stroke-linecap:butt;stroke-linejoin:miter;stroke-opacity:1;font-family:Arial"
       d="M 155.7077,243.55659 L 160.91083,218.66597 L 164.66083,218.66597 L 163.60614,223.75191 C 164.88738,221.83005 166.13738,220.40818 167.35614,219.48628 C 168.5905,218.56443 169.84831,218.1035 171.12958,218.10347 C 171.97331,218.1035 173.01237,218.40818 174.24677,219.01753 L 172.51239,222.95503 C 171.778,222.4238 170.97331,222.15818 170.09833,222.15816 C 168.61394,222.15818 167.0905,222.9863 165.52802,224.64253 C 163.96551,226.2988 162.73894,229.27536 161.84833,233.57222 L 159.73895,243.55659 L 155.7077,243.55659 M 178.81122,243.55659 L 182.88934,224.09761 C 181.13152,225.48044 178.65887,226.58786 175.47137,227.41988 L 176.06903,224.53706 C 177.65105,223.90427 179.20965,223.0781 180.74481,222.05855 C 182.29167,221.03904 183.45183,220.14842 184.22528,219.38667 C 184.69402,218.91795 185.13933,218.34959 185.56122,217.68159 L 187.40692,217.68159 L 182.01044,243.55659 L 178.81122,243.55659"
       id="text2282" />
    <path
       style="font-size:48px;font-style:italic;font-variant:normal;font-weight:normal;font-stretch:normal;text-align:start;line-height:100%;writing-mode:lr-tb;text-anchor:start;fill:#000000;fill-opacity:1;stroke:none;stroke-width:1px;stroke-linecap:butt;stroke-linejoin:miter;stroke-opacity:1;font-family:Arial"
       d="M 412.14871,690.57782 L 417.35184,665.68719 L 421.10184,665.68719 L 420.04715,670.77313 C 421.32839,668.85128 422.57839,667.42941 423.79715,666.50751 C 425.03151,665.58566 426.28932,665.12472 427.57059,665.12469 C 428.41432,665.12472 429.45338,665.42941 430.68777,666.03876 L 428.9534,669.97626 C 428.21901,669.44503 427.41432,669.1794 426.53934,669.17938 C 425.05495,669.1794 423.53151,670.00753 421.96902,671.66376 C 420.40651,673.32002 419.17995,676.29658 418.28934,680.59344 L 416.17996,690.57782 L 412.14871,690.57782 M 428.69559,690.57782 C 429.02371,689.04267 429.47488,687.75946 430.0491,686.72821 C 430.63504,685.68525 431.40847,684.70087 432.36942,683.77509 C 433.33035,682.83759 435.18191,681.27314 437.9241,679.08173 C 439.58815,677.75752 440.72487,676.77901 441.33426,676.14618 C 442.21315,675.23213 442.85182,674.33565 443.25027,673.45673 C 443.51979,672.85909 443.65455,672.2087 443.65457,671.50555 C 443.65455,670.32198 443.23268,669.32003 442.38895,668.49969 C 441.5569,667.66769 440.53151,667.25167 439.31277,667.25165 C 438.10573,667.25167 437.05105,667.67355 436.14871,668.51727 C 435.24636,669.34933 434.60183,670.69112 434.21512,672.54266 L 431.10379,672.08563 C 431.40847,669.8005 432.29324,668.00167 433.75809,666.68915 C 435.23464,665.36495 437.06862,664.70285 439.26004,664.70282 C 440.72487,664.70285 442.04909,665.00753 443.2327,665.61688 C 444.42799,666.22628 445.32447,667.08175 445.92215,668.18329 C 446.51979,669.28487 446.81861,670.42159 446.81863,671.59344 C 446.81861,673.3044 446.20924,674.95088 444.99051,676.5329 C 444.24049,677.51729 442.03737,679.45674 438.38113,682.35126 C 436.81081,683.59345 435.63894,684.61298 434.86551,685.40985 C 434.10378,686.20673 433.52956,686.95673 433.14285,687.65985 L 444.6741,687.65985 L 444.05887,690.57782 L 428.69559,690.57782"
       id="text2288" />
    <path
       style="font-size:48px;font-style:italic;font-variant:normal;font-weight:normal;font-stretch:normal;text-align:start;line-height:100%;writing-mode:lr-tb;text-anchor:start;fill:#000000;fill-opacity:1;stroke:none;stroke-width:1px;stroke-linecap:butt;stroke-linejoin:miter;stroke-opacity:1;font-family:Arial"
       d="M 498.97656,105.28773 L 504.17969,80.397102 L 507.92969,80.397102 L 506.875,85.48304 C 508.15624,83.561187 509.40624,82.139313 510.625,81.217415 C 511.85936,80.295565 513.11717,79.834628 514.39844,79.834602 C 515.24217,79.834628 516.28123,80.139315 517.51563,80.748665 L 515.78125,84.686165 C 515.04686,84.154936 514.24217,83.889311 513.36719,83.88929 C 511.8828,83.889311 510.35936,84.717435 508.79688,86.373665 C 507.23437,88.029932 506.0078,91.006492 505.11719,95.303352 L 503.00781,105.28773 L 498.97656,105.28773 M 522.08008,105.28773 L 526.1582,85.828743 C 524.40038,87.211574 521.92773,88.318994 518.74023,89.151009 L 519.33789,86.268196 C 520.91991,85.635403 522.47851,84.809232 524.01367,83.78968 C 525.56053,82.770172 526.72069,81.879548 527.49414,81.117805 C 527.96288,80.64908 528.40819,80.080721 528.83008,79.412727 L 530.67578,79.412727 L 525.2793,105.28773 L 522.08008,105.28773 M 543.70117,101.12171 L 543.70117,94.055305 L 536.6875,94.055305 L 536.6875,91.10218 L 543.70117,91.10218 L 543.70117,84.088509 L 546.68945,84.088509 L 546.68945,91.10218 L 553.70313,91.10218 L 553.70313,94.055305 L 546.68945,94.055305 L 546.68945,101.12171 L 543.70117,101.12171 M 556.07031,105.28773 L 561.27344,80.397102 L 565.02344,80.397102 L 563.96875,85.48304 C 565.24999,83.561187 566.49999,82.139313 567.71875,81.217415 C 568.95311,80.295565 570.21092,79.834628 571.49219,79.834602 C 572.33592,79.834628 573.37498,80.139315 574.60938,80.748665 L 572.875,84.686165 C 572.14061,84.154936 571.33592,83.889311 570.46094,83.88929 C 568.97655,83.889311 567.45311,84.717435 565.89063,86.373665 C 564.32812,88.029932 563.10155,91.006492 562.21094,95.303352 L 560.10156,105.28773 L 556.07031,105.28773 M 572.47656,98.537727 L 575.57031,98.151009 C 575.80468,99.955701 576.32031,101.25062 577.11719,102.03577 C 577.92577,102.80921 578.98046,103.19593 580.28125,103.19593 C 581.85155,103.19593 583.20507,102.63343 584.3418,101.50843 C 585.49022,100.38344 586.06444,99.094374 586.06445,97.641243 C 586.06444,96.375627 585.6367,95.332659 584.78125,94.512337 C 583.92577,93.680317 582.77733,93.264302 581.33594,93.26429 C 581.17186,93.264302 580.83202,93.287739 580.31641,93.334602 L 580.86133,90.680305 C 581.166,90.727195 581.45897,90.750633 581.74023,90.750618 C 583.55663,90.750633 584.95116,90.31118 585.92383,89.432259 C 586.90819,88.54165 587.40037,87.451808 587.40039,86.162727 C 587.40037,84.979154 586.99608,83.983061 586.1875,83.174446 C 585.39061,82.365875 584.4121,81.961579 583.25195,81.961555 C 582.11522,81.961579 581.08983,82.377594 580.17578,83.209602 C 579.27343,84.029936 578.69335,85.195951 578.43555,86.707649 L 575.30664,86.074837 C 575.82226,83.953764 576.81249,82.313141 578.27734,81.152962 C 579.74218,79.992831 581.47655,79.412753 583.48047,79.412727 C 585.58983,79.412753 587.29491,80.051424 588.5957,81.328743 C 589.90818,82.606109 590.56443,84.17642 590.56445,86.03968 C 590.56443,87.399073 590.20701,88.588525 589.49219,89.60804 C 588.78904,90.615867 587.7285,91.453757 586.31055,92.121712 C 587.31834,92.719381 588.06834,93.440083 588.56055,94.283821 C 589.06443,95.127581 589.31639,96.094377 589.31641,97.184212 C 589.31639,99.492811 588.4492,101.49672 586.71484,103.19593 C 584.99217,104.88343 582.92968,105.72718 580.52734,105.72718 C 578.1953,105.72718 576.30859,105.07679 574.86719,103.77601 C 573.4375,102.46351 572.64062,100.71742 572.47656,98.537727"
       id="text2300" />
    <path
       style="font-size:48px;font-style:italic;font-variant:normal;font-weight:normal;font-stretch:normal;text-align:start;line-height:100%;writing-mode:lr-tb;text-anchor:start;fill:#000000;fill-opacity:1;stroke:none;stroke-width:1px;stroke-linecap:butt;stroke-linejoin:miter;stroke-opacity:1;font-family:Arial"
       d="M 564.08899,316.66895 L 569.29211,291.77832 L 573.04211,291.77832 L 571.98743,296.86426 C 573.26867,294.9424 574.51866,293.52053 575.73743,292.59863 C 576.97179,291.67678 578.2296,291.21585 579.51086,291.21582 C 580.3546,291.21585 581.39366,291.52053 582.62805,292.12988 L 580.89368,296.06738 C 580.15928,295.53615 579.3546,295.27053 578.47961,295.27051 C 576.99522,295.27053 575.47179,296.09865 573.9093,297.75488 C 572.34679,299.41115 571.12023,302.38771 570.22961,306.68457 L 568.12024,316.66895 L 564.08899,316.66895 M 587.1925,316.66895 L 591.27063,297.20996 C 589.51281,298.59279 587.04015,299.70021 583.85266,300.53223 L 584.45032,297.64941 C 586.03234,297.01662 587.59093,296.19045 589.1261,295.1709 C 590.67296,294.15139 591.83312,293.26077 592.60657,292.49902 C 593.0753,292.0303 593.52061,291.46194 593.9425,290.79395 L 595.78821,290.79395 L 590.39172,316.66895 L 587.1925,316.66895 M 608.8136,312.50293 L 608.8136,305.43652 L 601.79993,305.43652 L 601.79993,302.4834 L 608.8136,302.4834 L 608.8136,295.46973 L 611.80188,295.46973 L 611.80188,302.4834 L 618.81555,302.4834 L 618.81555,305.43652 L 611.80188,305.43652 L 611.80188,312.50293 L 608.8136,312.50293 M 621.18274,316.66895 L 626.38586,291.77832 L 630.13586,291.77832 L 629.08118,296.86426 C 630.36242,294.9424 631.61241,293.52053 632.83118,292.59863 C 634.06554,291.67678 635.32335,291.21585 636.60461,291.21582 C 637.44835,291.21585 638.48741,291.52053 639.7218,292.12988 L 637.98743,296.06738 C 637.25303,295.53615 636.44835,295.27053 635.57336,295.27051 C 634.08897,295.27053 632.56554,296.09865 631.00305,297.75488 C 629.44054,299.41115 628.21398,302.38771 627.32336,306.68457 L 625.21399,316.66895 L 621.18274,316.66895 M 637.72961,316.66895 C 638.05774,315.13379 638.50891,313.85059 639.08313,312.81934 C 639.66906,311.77637 640.4425,310.792 641.40344,309.86621 C 642.36437,308.92872 644.21593,307.36427 646.95813,305.17285 C 648.62218,303.84865 649.7589,302.87013 650.36829,302.2373 C 651.24718,301.32326 651.88585,300.42677 652.2843,299.54785 C 652.55382,298.95021 652.68858,298.29982 652.6886,297.59668 C 652.68858,296.41311 652.26671,295.41115 651.42297,294.59082 C 650.59093,293.75881 649.56554,293.3428 648.3468,293.34277 C 647.13976,293.3428 646.08507,293.76467 645.18274,294.6084 C 644.28039,295.44045 643.63586,296.78225 643.24915,298.63379 L 640.13782,298.17676 C 640.4425,295.89162 641.32726,294.0928 642.79211,292.78027 C 644.26867,291.45608 646.10265,290.79397 648.29407,290.79395 C 649.7589,290.79397 651.08311,291.09866 652.26672,291.70801 C 653.46202,292.31741 654.3585,293.17288 654.95618,294.27441 C 655.55381,295.376 655.85264,296.51272 655.85266,297.68457 C 655.85264,299.39553 655.24327,301.04201 654.02454,302.62402 C 653.27452,303.60841 651.0714,305.54786 647.41516,308.44238 C 645.84484,309.68458 644.67296,310.70411 643.89954,311.50098 C 643.13781,312.29786 642.56359,313.04786 642.17688,313.75098 L 653.70813,313.75098 L 653.0929,316.66895 L 637.72961,316.66895"
       id="text2308" />
    <path
       style="font-size:48px;font-style:italic;font-variant:normal;font-weight:normal;font-stretch:normal;text-align:start;line-height:100%;writing-mode:lr-tb;text-anchor:start;fill:#000000;fill-opacity:1;stroke:none;stroke-width:1px;stroke-linecap:butt;stroke-linejoin:miter;stroke-opacity:1;font-family:Arial"
       d="M 720.2901,573.36554 L 725.49323,548.47491 L 729.24323,548.47491 L 728.18854,553.56085 C 729.46978,551.639 730.71978,550.21713 731.93854,549.29523 C 733.1729,548.37338 734.43071,547.91244 735.71198,547.91241 C 736.55571,547.91244 737.59477,548.21713 738.82916,548.82648 L 737.09479,552.76398 C 736.36039,552.23275 735.55571,551.96712 734.68073,551.9671 C 733.19634,551.96712 731.6729,552.79525 730.11041,554.45148 C 728.5479,556.10774 727.32134,559.0843 726.43073,563.38116 L 724.32135,573.36554 L 720.2901,573.36554 M 736.83698,573.36554 C 737.1651,571.83038 737.61627,570.54718 738.19049,569.51593 C 738.77642,568.47297 739.54986,567.48859 740.5108,566.56281 C 741.47173,565.62531 743.32329,564.06086 746.06549,561.86945 C 747.72954,560.54524 748.86626,559.56673 749.47565,558.9339 C 750.35454,558.01985 750.99321,557.12337 751.39166,556.24445 C 751.66118,555.64681 751.79594,554.99642 751.79596,554.29327 C 751.79594,553.1097 751.37407,552.10775 750.53033,551.28741 C 749.69829,550.45541 748.6729,550.03939 747.45416,550.03937 C 746.24712,550.03939 745.19243,550.46127 744.2901,551.30499 C 743.38775,552.13705 742.74322,553.47884 742.35651,555.33038 L 739.24518,554.87335 C 739.54986,552.58822 740.43463,550.78939 741.89948,549.47687 C 743.37603,548.15267 745.21001,547.49057 747.40143,547.49054 C 748.86626,547.49057 750.19048,547.79525 751.37408,548.4046 C 752.56938,549.014 753.46586,549.86947 754.06354,550.97101 C 754.66117,552.07259 754.96,553.20931 754.96002,554.38116 C 754.96,556.09212 754.35063,557.7386 753.1319,559.32062 C 752.38188,560.30501 750.17876,562.24446 746.52252,565.13898 C 744.9522,566.38117 743.78033,567.4007 743.0069,568.19757 C 742.24517,568.99445 741.67095,569.74445 741.28424,570.44757 L 752.81549,570.44757 L 752.20026,573.36554 L 736.83698,573.36554 M 765.01471,569.19952 L 765.01471,562.13312 L 758.00104,562.13312 L 758.00104,559.17999 L 765.01471,559.17999 L 765.01471,552.16632 L 768.00299,552.16632 L 768.00299,559.17999 L 775.01666,559.17999 L 775.01666,562.13312 L 768.00299,562.13312 L 768.00299,569.19952 L 765.01471,569.19952 M 777.38385,573.36554 L 782.58698,548.47491 L 786.33698,548.47491 L 785.28229,553.56085 C 786.56353,551.639 787.81353,550.21713 789.03229,549.29523 C 790.26665,548.37338 791.52446,547.91244 792.80573,547.91241 C 793.64946,547.91244 794.68852,548.21713 795.92291,548.82648 L 794.18854,552.76398 C 793.45414,552.23275 792.64946,551.96712 791.77448,551.9671 C 790.29009,551.96712 788.76665,552.79525 787.20416,554.45148 C 785.64165,556.10774 784.41509,559.0843 783.52448,563.38116 L 781.4151,573.36554 L 777.38385,573.36554 M 793.7901,566.61554 L 796.88385,566.22882 C 797.11822,568.03351 797.63384,569.32843 798.43073,570.11359 C 799.23931,570.88703 800.294,571.27374 801.59479,571.27374 C 803.16509,571.27374 804.5186,570.71125 805.65533,569.58624 C 806.80376,568.46125 807.37798,567.17219 807.37799,565.71906 C 807.37798,564.45344 806.95024,563.41047 806.09479,562.59015 C 805.23931,561.75813 804.09087,561.34211 802.64948,561.3421 C 802.4854,561.34211 802.14556,561.36555 801.62994,561.41241 L 802.17487,558.75812 C 802.47954,558.80501 802.77251,558.82844 803.05377,558.82843 C 804.87017,558.82844 806.2647,558.38899 807.23737,557.51007 C 808.22172,556.61946 808.71391,555.52962 808.71393,554.24054 C 808.71391,553.05697 808.30961,552.06087 807.50104,551.25226 C 806.70415,550.44369 805.72563,550.03939 804.56549,550.03937 C 803.42876,550.03939 802.40337,550.45541 801.48932,551.28741 C 800.58697,552.10775 800.00689,553.27376 799.74908,554.78546 L 796.62018,554.15265 C 797.1358,552.03158 798.12603,550.39095 799.59088,549.23077 C 801.05572,548.07064 802.79009,547.49057 804.79401,547.49054 C 806.90337,547.49057 808.60844,548.12924 809.90924,549.40656 C 811.22172,550.68392 811.87797,552.25423 811.87799,554.11749 C 811.87797,555.47689 811.52055,556.66634 810.80573,557.68585 C 810.10258,558.69368 809.04204,559.53157 807.62408,560.19952 C 808.63188,560.79719 809.38188,561.5179 809.87408,562.36163 C 810.37797,563.20539 810.62993,564.17219 810.62994,565.26202 C 810.62993,567.57062 809.76274,569.57453 808.02838,571.27374 C 806.30571,572.96124 804.24321,573.80499 801.84088,573.80499 C 799.50884,573.80499 797.62213,573.1546 796.18073,571.85382 C 794.75103,570.54132 793.95416,568.79523 793.7901,566.61554"
       id="text2316" />
    <path
       style="font-size:48px;font-style:italic;font-variant:normal;font-weight:normal;font-stretch:normal;text-align:start;line-height:100%;writing-mode:lr-tb;text-anchor:start;fill:#000000;fill-opacity:1;stroke:none;stroke-width:1px;stroke-linecap:butt;stroke-linejoin:miter;stroke-opacity:1;font-family:Arial"
       d="M 792.14874,126.82545 L 797.35187,101.93482 L 801.10187,101.93482 L 800.04718,107.02076 C 801.32842,105.09891 802.57842,103.67703 803.79718,102.75513 C 805.03154,101.83328 806.28935,101.37235 807.57062,101.37232 C 808.41435,101.37235 809.45341,101.67703 810.68781,102.28638 L 808.95343,106.22388 C 808.21904,105.69266 807.41435,105.42703 806.53937,105.42701 C 805.05498,105.42703 803.53154,106.25516 801.96906,107.91138 C 800.40655,109.56765 799.17998,112.54421 798.28937,116.84107 L 796.17999,126.82545 L 792.14874,126.82545 M 815.25226,126.82545 L 819.33038,107.36646 C 817.57256,108.74929 815.09991,109.85671 811.91241,110.68873 L 812.51007,107.80592 C 814.09209,107.17312 815.65069,106.34695 817.18585,105.3274 C 818.73271,104.30789 819.89287,103.41727 820.66632,102.65553 C 821.13506,102.1868 821.58037,101.61844 822.00226,100.95045 L 823.84796,100.95045 L 818.45148,126.82545 L 815.25226,126.82545 M 836.87335,122.65943 L 836.87335,115.59303 L 829.85968,115.59303 L 829.85968,112.6399 L 836.87335,112.6399 L 836.87335,105.62623 L 839.86163,105.62623 L 839.86163,112.6399 L 846.87531,112.6399 L 846.87531,115.59303 L 839.86163,115.59303 L 839.86163,122.65943 L 836.87335,122.65943 M 849.24249,126.82545 L 854.44562,101.93482 L 858.19562,101.93482 L 857.14093,107.02076 C 858.42217,105.09891 859.67217,103.67703 860.89093,102.75513 C 862.12529,101.83328 863.3831,101.37235 864.66437,101.37232 C 865.5081,101.37235 866.54716,101.67703 867.78156,102.28638 L 866.04718,106.22388 C 865.31279,105.69266 864.5081,105.42703 863.63312,105.42701 C 862.14873,105.42703 860.62529,106.25516 859.06281,107.91138 C 857.5003,109.56765 856.27373,112.54421 855.38312,116.84107 L 853.27374,126.82545 L 849.24249,126.82545 M 865.78937,126.82545 C 866.11749,125.29029 866.56866,124.00709 867.14288,122.97584 C 867.72882,121.93287 868.50225,120.9485 869.4632,120.02271 C 870.42413,119.08522 872.27569,117.52077 875.01788,115.32935 C 876.68193,114.00515 877.81865,113.02663 878.42804,112.39381 C 879.30693,111.47976 879.9456,110.58328 880.34406,109.70435 C 880.61357,109.10671 880.74833,108.45632 880.74835,107.75318 C 880.74833,106.56961 880.32646,105.56766 879.48273,104.74732 C 878.65068,103.91531 877.62529,103.4993 876.40656,103.49928 C 875.19951,103.4993 874.14483,103.92117 873.24249,104.7649 C 872.34014,105.59695 871.69561,106.93875 871.3089,108.79029 L 868.19757,108.33326 C 868.50225,106.04812 869.38702,104.2493 870.85187,102.93678 C 872.32842,101.61258 874.1624,100.95047 876.35382,100.95045 C 877.81865,100.95047 879.14287,101.25516 880.32648,101.86451 C 881.52177,102.47391 882.41826,103.32938 883.01593,104.43092 C 883.61357,105.5325 883.91239,106.66922 883.91241,107.84107 C 883.91239,109.55203 883.30302,111.19851 882.08429,112.78053 C 881.33427,113.76491 879.13115,115.70436 875.47491,118.59888 C 873.90459,119.84108 872.73272,120.86061 871.95929,121.65748 C 871.19756,122.45436 870.62335,123.20436 870.23663,123.90748 L 881.76788,123.90748 L 881.15265,126.82545 L 865.78937,126.82545 M 893.9671,122.65943 L 893.9671,115.59303 L 886.95343,115.59303 L 886.95343,112.6399 L 893.9671,112.6399 L 893.9671,105.62623 L 896.95538,105.62623 L 896.95538,112.6399 L 903.96906,112.6399 L 903.96906,115.59303 L 896.95538,115.59303 L 896.95538,122.65943 L 893.9671,122.65943 M 906.33624,126.82545 L 911.53937,101.93482 L 915.28937,101.93482 L 914.23468,107.02076 C 915.51592,105.09891 916.76592,103.67703 917.98468,102.75513 C 919.21904,101.83328 920.47685,101.37235 921.75812,101.37232 C 922.60185,101.37235 923.64091,101.67703 924.87531,102.28638 L 923.14093,106.22388 C 922.40654,105.69266 921.60185,105.42703 920.72687,105.42701 C 919.24248,105.42703 917.71904,106.25516 916.15656,107.91138 C 914.59405,109.56765 913.36748,112.54421 912.47687,116.84107 L 910.36749,126.82545 L 906.33624,126.82545 M 922.74249,120.07545 L 925.83624,119.68873 C 926.07061,121.49342 926.58624,122.78834 927.38312,123.57349 C 928.1917,124.34693 929.24639,124.73365 930.54718,124.73365 C 932.11748,124.73365 933.471,124.17115 934.60773,123.04615 C 935.75615,121.92116 936.33037,120.63209 936.33038,119.17896 C 936.33037,117.91335 935.90263,116.87038 935.04718,116.05006 C 934.1917,115.21804 933.04326,114.80202 931.60187,114.80201 C 931.43779,114.80202 931.09795,114.82546 930.58234,114.87232 L 931.12726,112.21803 C 931.43194,112.26491 931.7249,112.28835 932.00616,112.28834 C 933.82256,112.28835 935.21709,111.8489 936.18976,110.96998 C 937.17412,110.07937 937.6663,108.98953 937.66632,107.70045 C 937.6663,106.51687 937.26201,105.52078 936.45343,104.71217 C 935.65654,103.9036 934.67803,103.4993 933.51788,103.49928 C 932.38115,103.4993 931.35576,103.91531 930.44171,104.74732 C 929.53936,105.56766 928.95928,106.73367 928.70148,108.24537 L 925.57257,107.61256 C 926.08819,105.49148 927.07842,103.85086 928.54327,102.69068 C 930.00811,101.53055 931.74248,100.95047 933.7464,100.95045 C 935.85576,100.95047 937.56084,101.58914 938.86163,102.86646 C 940.17411,104.14383 940.83036,105.71414 940.83038,107.5774 C 940.83036,108.93679 940.47294,110.12625 939.75812,111.14576 C 939.05497,112.15359 937.99443,112.99148 936.57648,113.65943 C 937.58427,114.2571 938.33427,114.9778 938.82648,115.82154 C 939.33036,116.6653 939.58232,117.6321 939.58234,118.72193 C 939.58232,121.03053 938.71513,123.03444 936.98077,124.73365 C 935.2581,126.42115 933.19561,127.2649 930.79327,127.2649 C 928.46123,127.2649 926.57452,126.61451 925.13312,125.31373 C 923.70343,124.00123 922.90655,122.25514 922.74249,120.07545"
       id="text2324" />
    <path
       sodipodi:type="arc"
       style="opacity:1;color:#000000;fill:#000000;fill-opacity:1;fill-rule:evenodd;stroke:none;stroke-width:4;stroke-linecap:round;stroke-linejoin:round;marker:none;marker-start:none;marker-mid:none;marker-end:none;stroke-miterlimit:4;stroke-dasharray:8, 4;stroke-dashoffset:0;stroke-opacity:1;visibility:visible;display:inline;overflow:visible"
       id="path2334"
       sodipodi:cx="50"
       sodipodi:cy="630"
       sodipodi:rx="5"
       sodipodi:ry="5"
       d="M 55 630 A 5 5 0 1 1  45,630 A 5 5 0 1 1  55 630 z"
       transform="matrix(2,0,0,2,-50,-630)" />
    <path
       sodipodi:type="arc"
       style="opacity:1;color:#000000;fill:#000000;fill-opacity:1;fill-rule:evenodd;stroke:none;stroke-width:4;stroke-linecap:round;stroke-linejoin:round;marker:none;marker-start:none;marker-mid:none;marker-end:none;stroke-miterlimit:4;stroke-dasharray:8, 4;stroke-dashoffset:0;stroke-opacity:1;visibility:visible;display:inline;overflow:visible"
       id="path2336"
       sodipodi:cx="50"
       sodipodi:cy="630"
       sodipodi:rx="5"
       sodipodi:ry="5"
       d="M 55 630 A 5 5 0 1 1  45,630 A 5 5 0 1 1  55 630 z"
       transform="matrix(2,0,0,2,100,-1005)" />
    <path
       sodipodi:type="arc"
       style="opacity:1;color:#000000;fill:#000000;fill-opacity:1;fill-rule:evenodd;stroke:none;stroke-width:4;stroke-linecap:round;stroke-linejoin:round;marker:none;marker-start:none;marker-mid:none;marker-end:none;stroke-miterlimit:4;stroke-dasharray:8, 4;stroke-dashoffset:0;stroke-opacity:1;visibility:visible;display:inline;overflow:visible"
       id="path2338"
       sodipodi:cx="50"
       sodipodi:cy="630"
       sodipodi:rx="5"
       sodipodi:ry="5"
       d="M 55 630 A 5 5 0 1 1  45,630 A 5 5 0 1 1  55 630 z"
       transform="matrix(2,0,0,2,300,-605)" />
    <path
       sodipodi:type="arc"
       style="opacity:1;color:#000000;fill:#000000;fill-opacity:1;fill-rule:evenodd;stroke:none;stroke-width:4;stroke-linecap:round;stroke-linejoin:round;marker:none;marker-start:none;marker-mid:none;marker-end:none;stroke-miterlimit:4;stroke-dasharray:8, 4;stroke-dashoffset:0;stroke-opacity:1;visibility:visible;display:inline;overflow:visible"
       id="path2340"
       sodipodi:cx="50"
       sodipodi:cy="630"
       sodipodi:rx="5"
       sodipodi:ry="5"
       d="M 55 630 A 5 5 0 1 1  45,630 A 5 5 0 1 1  55 630 z"
       transform="matrix(2,0,0,2,450,-1135)" />
    <path
       sodipodi:type="arc"
       style="opacity:1;color:#000000;fill:#000000;fill-opacity:1;fill-rule:evenodd;stroke:none;stroke-width:4;stroke-linecap:round;stroke-linejoin:round;marker:none;marker-start:none;marker-mid:none;marker-end:none;stroke-miterlimit:4;stroke-dasharray:8, 4;stroke-dashoffset:0;stroke-opacity:1;visibility:visible;display:inline;overflow:visible"
       id="path2342"
       sodipodi:cx="50"
       sodipodi:cy="630"
       sodipodi:rx="5"
       sodipodi:ry="5"
       d="M 55 630 A 5 5 0 1 1  45,630 A 5 5 0 1 1  55 630 z"
       transform="matrix(2,0,0,2,800,-1105)" />
    <path
       sodipodi:type="arc"
       style="opacity:1;color:#000000;fill:#000000;fill-opacity:1;fill-rule:evenodd;stroke:none;stroke-width:4;stroke-linecap:round;stroke-linejoin:round;marker:none;marker-start:none;marker-mid:none;marker-end:none;stroke-miterlimit:4;stroke-dasharray:8, 4;stroke-dashoffset:0;stroke-opacity:1;visibility:visible;display:inline;overflow:visible"
       id="path2344"
       sodipodi:cx="50"
       sodipodi:cy="630"
       sodipodi:rx="5"
       sodipodi:ry="5"
       d="M 55 630 A 5 5 0 1 1  45,630 A 5 5 0 1 1  55 630 z"
       transform="matrix(2,0,0,2,650,-730)" />
    <path
       sodipodi:type="arc"
       style="opacity:1;color:#000000;fill:#000000;fill-opacity:1;fill-rule:evenodd;stroke:none;stroke-width:4;stroke-linecap:round;stroke-linejoin:round;marker:none;marker-start:none;marker-mid:none;marker-end:none;stroke-miterlimit:4;stroke-dasharray:8, 4;stroke-dashoffset:0;stroke-opacity:1;visibility:visible;display:inline;overflow:visible"
       id="path2346"
       sodipodi:cx="50"
       sodipodi:cy="630"
       sodipodi:rx="5"
       sodipodi:ry="5"
       d="M 55 630 A 5 5 0 1 1  45,630 A 5 5 0 1 1  55 630 z"
       transform="matrix(2,0,0,2,450,-980)" />
  </g>
</svg>
